<?xml version="1.0" standalone="no"?>
<!DOCTYPE svg PUBLIC "-//W3C//DTD SVG 20010904//EN"
 "http://www.w3.org/TR/2001/REC-SVG-20010904/DTD/svg10.dtd">
<svg version="1.0" xmlns="http://www.w3.org/2000/svg"
 width="840.000000pt" height="800.000000pt" viewBox="0 0 840.000000 800.000000"
 preserveAspectRatio="xMidYMid meet">
<metadata>
Created by potrace 1.16, written by Peter Selinger 2001-2019
</metadata>
<g transform="translate(0.000000,800.000000) scale(0.100000,-0.100000)"
fill="#000000" stroke="none">
<path d="M2891 7588 c-42 -14 -112 -83 -174 -170 l-48 -68 -25 -312 c-32 -416
-41 -509 -139 -1598 -88 -978 -140 -1576 -151 -1769 l-7 -114 54 7 c79 10 794
26 1169 26 677 0 1243 37 1559 100 482 97 903 408 1274 942 144 207 410 689
390 708 -4 5 -138 89 -298 188 -159 98 -517 322 -795 497 -1323 833 -1741
1087 -2285 1387 -295 163 -429 208 -524 176z m1160 -1104 c228 -68 439 -297
615 -669 288 -611 179 -1141 -280 -1356 -59 -28 -229 -78 -264 -79 -10 0 -112
195 -112 214 0 2 27 6 61 9 202 22 411 150 482 297 78 161 71 363 -23 623 -18
48 -34 86 -37 84 -2 -3 -11 -35 -18 -71 -17 -78 -72 -189 -126 -250 -48 -54
-149 -119 -234 -152 -301 -113 -589 80 -726 486 -58 170 -52 363 16 517 71
160 254 312 424 352 60 15 164 12 222 -5z m1372 -1859 l37 -76 -172 -83 c-95
-46 -370 -181 -612 -300 -241 -119 -442 -216 -447 -216 -9 0 -83 139 -77 145
4 5 1222 603 1228 604 3 1 22 -33 43 -74z"/>
<path d="M3783 6240 c-167 -84 -240 -269 -188 -475 36 -144 149 -319 242 -376
36 -22 38 -23 182 -11 l145 12 46 39 c28 23 58 63 80 106 34 67 35 71 34 184
0 101 -4 125 -27 187 -62 164 -155 287 -253 335 -35 17 -70 25 -124 27 -68 3
-81 0 -137 -28z"/>
<path d="M2220 6653 c-117 -218 -304 -564 -415 -767 -732 -1343 -1079 -1984
-1349 -2495 l-76 -145 0 -103 c0 -293 79 -542 215 -680 65 -65 127 -93 204
-93 78 1 257 98 455 246 258 194 871 758 915 842 14 26 6 -73 186 2417 20 264
47 635 60 824 14 189 24 345 22 348 -3 2 -100 -175 -217 -394z m-123 -1079
c24 -25 25 -30 21 -108 -12 -181 -149 -491 -303 -681 l-24 -30 38 3 c45 4 61
-11 68 -67 8 -56 -12 -155 -58 -295 -135 -411 -425 -801 -696 -935 -95 -48
-95 -48 -58 81 l32 113 41 7 c162 27 393 268 506 527 72 164 106 327 74 359
-15 15 -53 15 -81 1 -12 -7 -57 -41 -100 -76 -43 -36 -80 -63 -82 -61 -2 2 8
45 23 96 l26 94 76 63 c198 166 315 349 355 559 21 110 -1 140 -76 103 -47
-23 -214 -183 -297 -285 -29 -35 -52 -59 -52 -55 0 4 12 52 28 105 27 95 29
98 121 203 136 152 267 265 338 291 51 18 50 18 80 -12z"/>
<path d="M4560 6952 c25 -16 248 -157 495 -313 1679 -1055 1873 -1173 2076
-1265 223 -100 714 -279 747 -272 29 6 -319 310 -518 453 -142 101 -203 140
-350 223 -93 52 -2427 1181 -2480 1199 -8 3 5 -8 30 -25z"/>
<path d="M6961 5178 c-35 -78 -156 -304 -224 -418 -338 -568 -739 -970 -1162
-1166 l-75 -35 0 -57 c0 -52 11 -422 71 -2342 11 -371 22 -677 24 -679 9 -8
105 62 144 104 22 24 67 97 99 162 32 65 254 476 492 913 1417 2600 1645 3019
1661 3055 23 51 24 97 2 123 -12 14 -99 48 -258 100 -243 81 -409 147 -621
247 -64 30 -119 55 -121 55 -2 0 -16 -28 -32 -62z m190 -1165 c-38 -97 -54
-120 -402 -585 -406 -541 -498 -674 -575 -833 -76 -155 -100 -262 -74 -329 30
-81 175 -14 371 172 57 53 99 88 96 77 -72 -199 -91 -237 -141 -282 -204 -185
-394 -272 -467 -214 -112 88 -3 449 250 832 48 74 230 323 404 554 174 231
313 421 309 423 -4 1 -112 -40 -240 -92 -128 -52 -232 -91 -232 -86 0 15 71
195 80 204 15 15 655 275 658 267 1 -4 -16 -52 -37 -108z"/>
<path d="M5275 3483 c-95 -26 -331 -62 -505 -77 -96 -8 -202 -18 -235 -21 -33
-3 -494 -10 -1025 -14 -1059 -10 -1175 -16 -1228 -63 -15 -13 -107 -100 -207
-194 -391 -372 -658 -601 -850 -729 -130 -87 -306 -174 -373 -184 l-47 -7 50
-36 c172 -127 164 -123 2208 -942 1077 -432 1984 -791 2015 -798 76 -17 246
-16 297 3 l40 14 -3 105 c-24 921 -83 2955 -85 2956 -1 1 -24 -5 -52 -13z
m-1602 -868 c131 -34 257 -125 312 -227 58 -104 30 -229 -70 -315 l-40 -35 50
8 c81 14 244 8 314 -10 106 -28 199 -81 268 -153 222 -229 142 -467 -209 -627
-308 -139 -584 -154 -807 -41 -93 46 -211 157 -247 232 -56 114 -26 233 83
333 l56 52 -39 -9 c-21 -4 -82 -7 -134 -7 -164 2 -280 45 -382 142 -198 189
-127 402 185 556 113 56 243 99 352 116 78 12 234 4 308 -15z"/>
<path d="M3296 2445 c-94 -24 -198 -79 -244 -129 -78 -85 -75 -159 12 -253
117 -129 289 -154 496 -72 91 36 166 90 192 139 54 103 -15 231 -161 298 -70
32 -203 40 -295 17z"/>
<path d="M3880 1909 c-72 -8 -167 -37 -242 -75 -101 -51 -167 -136 -168 -215
0 -87 98 -206 217 -261 57 -27 81 -32 167 -36 74 -3 119 0 166 12 142 36 285
127 316 203 19 44 18 117 -2 156 -79 154 -253 236 -454 216z"/>
</g>
</svg>
