<?xml version="1.0" standalone="no"?>
<!DOCTYPE svg PUBLIC "-//W3C//DTD SVG 20010904//EN"
 "http://www.w3.org/TR/2001/REC-SVG-20010904/DTD/svg10.dtd">
<svg version="1.0" xmlns="http://www.w3.org/2000/svg"
 width="169.000000pt" height="225.000000pt" viewBox="0 0 169.000000 225.000000"
 preserveAspectRatio="xMidYMid meet">

<g transform="translate(0.000000,225.000000) scale(0.100000,-0.100000)"
fill="#000000" stroke="none">
<path d="M388 2083 c-53 -93 -161 -282 -241 -420 l-146 -253 389 0 390 0 0
-57 c0 -53 -13 -399 -26 -700 l-6 -123 -87 0 c-68 0 -98 6 -146 25 -33 14 -66
25 -72 25 -10 0 -13 -34 -13 -135 0 -74 1 -135 3 -135 2 0 31 11 65 25 50 20
79 25 153 25 l92 0 -7 -106 c-7 -110 -25 -180 -58 -226 l-19 -28 170 0 c94 0
171 1 171 3 0 1 -10 30 -22 62 -16 45 -22 91 -26 184 l-4 124 89 -5 c74 -3 97
-9 135 -31 78 -45 78 -45 78 97 0 72 -4 127 -10 131 -5 3 -31 -3 -56 -14 -36
-16 -67 -21 -140 -21 -89 0 -94 1 -99 23 -6 29 -23 351 -30 582 -3 99 -8 201
-11 228 l-5 47 395 0 395 0 -57 97 c-31 54 -139 242 -238 418 -100 176 -188
320 -195 320 -8 0 -15 -7 -17 -15 -1 -8 61 -157 138 -330 78 -173 143 -321
147 -327 4 -10 -56 -13 -281 -13 -157 0 -286 1 -287 3 -1 1 -6 148 -13 327
-11 322 -11 325 -33 328 -27 4 -28 -7 -44 -373 -6 -148 -14 -273 -18 -278 -4
-4 -133 -6 -287 -5 l-280 3 118 260 c64 143 131 290 149 327 31 67 33 98 6 98
-8 0 -57 -75 -109 -167z"/>
</g>
</svg>
